<svg width="106" height="18" viewBox="0 0 106 18" fill="none" xmlns="http://www.w3.org/2000/svg">
<path d="M9.5 1L12.1265 6.26604L18 7.11567L13.75 11.2124L14.753 17L9.5 14.266L4.247 17L5.25 11.2124L1 7.11567L6.8735 6.26604L9.5 1Z" fill="#E98A3F" stroke="#E98A3F" stroke-width="2" stroke-linecap="round" stroke-linejoin="round"/>
<path d="M31.5 1L34.1265 6.26604L40 7.11567L35.75 11.2124L36.753 17L31.5 14.266L26.247 17L27.25 11.2124L23 7.11567L28.8735 6.26604L31.5 1Z" fill="#E98A3F" stroke="#E98A3F" stroke-width="2" stroke-linecap="round" stroke-linejoin="round"/>
<path d="M53.5 1L56.1265 6.26604L62 7.11567L57.75 11.2124L58.753 17L53.5 14.266L48.247 17L49.25 11.2124L45 7.11567L50.8735 6.26604L53.5 1Z" fill="#E98A3F" stroke="#E98A3F" stroke-width="2" stroke-linecap="round" stroke-linejoin="round"/>
<path d="M75.5 1L78.1265 6.26604L84 7.11567L79.75 11.2124L80.753 17L75.5 14.266L70.247 17L71.25 11.2124L67 7.11567L72.8735 6.26604L75.5 1Z" fill="#E98A3F" stroke="#E98A3F" stroke-width="2" stroke-linecap="round" stroke-linejoin="round"/>
<path d="M97.5 1L100.127 6.26604L106 7.11567L101.75 11.2124L102.753 17L97.5 14.266L92.247 17L93.25 11.2124L89 7.11567L94.8735 6.26604L97.5 1Z" fill="#979797"/>
</svg>
