<svg width="16" height="24" viewBox="0 0 16 24" fill="none" xmlns="http://www.w3.org/2000/svg">
<g clip-path="url(#clip0_765_3663)">
<path d="M12.4301 1.30974C9.73815 -0.43658 6.25996 -0.43658 3.56961 1.30974C0.102468 3.55676 -1.00746 7.93562 0.988199 11.4943L7.99984 23.9996L15.0115 11.4943C17.0071 7.93562 15.8988 3.55676 12.4301 1.30974ZM13.6268 10.7601L8.00142 20.7942L2.37442 10.7601C0.773477 7.90337 1.66237 4.39076 4.44587 2.58761C5.5258 1.88724 6.76203 1.53552 7.99984 1.53552C9.23766 1.53552 10.4739 1.8857 11.5538 2.58607C14.3373 4.39076 15.2278 7.90337 13.6268 10.7601Z" fill="#E98A3F"/>
<path d="M8 3C5.7952 3 4 4.7952 4 7C4 9.2048 5.7952 11 8 11C10.2048 11 12 9.2048 12 7C12 4.7952 10.2064 3 8 3ZM8 9.4C6.6768 9.4 5.6 8.3232 5.6 7C5.6 5.6768 6.6768 4.6 8 4.6C9.3232 4.6 10.4 5.6768 10.4 7C10.4 8.3232 9.3232 9.4 8 9.4Z" fill="#E98A3F"/>
</g>
<defs>
<clipPath id="clip0_765_3663">
<rect width="16" height="24" fill="white"/>
</clipPath>
</defs>
</svg>
