<svg width="24" height="24" viewBox="0 0 24 24" fill="none" xmlns="http://www.w3.org/2000/svg">
<g clip-path="url(#clip0_781_5700)">
<path d="M20.7073 20.7076L20.7074 20.7075C21.0975 20.3176 21.0975 19.683 20.7074 19.293C20.5185 19.1042 20.2672 19 19.9999 19C19.7328 19 19.4815 19.1042 19.2925 19.2932C18.9025 19.683 18.9025 20.3176 19.2926 20.7076C19.6827 21.0975 20.3173 21.0975 20.7073 20.7076ZM19.6037 20.3965C19.4979 20.2907 19.4396 20.15 19.4396 20.0003C19.4396 19.8506 19.4979 19.7098 19.6037 19.6041C19.7096 19.4983 19.8504 19.44 20.0001 19.44C20.1497 19.44 20.2904 19.4983 20.3963 19.6041C20.6148 19.8226 20.6148 20.178 20.3962 20.3965C20.1777 20.615 19.8222 20.6149 19.6037 20.3965Z" fill="#979797"/>
<path d="M23.104 5.2289C23.1043 5.22854 23.1046 5.22831 23.1049 5.22801C23.1055 5.22742 23.106 5.22677 23.1066 5.22618L23.1818 5.151L23.1799 5.1491C24.2976 3.94986 24.2731 2.06525 23.1047 0.897034C22.5263 0.318581 21.7572 0 20.9391 0C20.1575 0 19.421 0.291418 18.8523 0.821855L18.8505 0.820025L18.7752 0.895232C18.7746 0.89586 18.774 0.896393 18.7734 0.897021C18.7731 0.897308 18.7728 0.897635 18.7725 0.897963L0.779587 18.8894L0.786594 18.8964C0.686018 18.9612 0.613154 19.0678 0.595659 19.1956L0.00392476 23.5174C-0.0140898 23.6491 0.0305573 23.7816 0.124536 23.8756C0.204775 23.9558 0.313108 24 0.42506 24C0.444208 24 0.46348 23.9987 0.482751 23.9961L4.80475 23.4042C4.93265 23.3868 5.03916 23.3139 5.10402 23.2133L5.11101 23.2203L23.104 5.2289ZM20.9391 0.850015C21.5301 0.850015 22.0857 1.08016 22.5036 1.49805C23.2635 2.25787 23.3541 3.43756 22.7753 4.29742L19.7037 1.2262C20.0658 0.981528 20.4924 0.850015 20.9391 0.850015ZM18.8505 2.02209L21.9796 5.15099L5.11101 22.0182L3.93378 20.8412L17.4744 7.30189L16.6638 6.49148L3.12336 20.0309L1.98178 18.8894L18.8505 2.02209ZM0.922078 23.078L1.40939 19.519L4.48121 22.5906L0.922078 23.078Z" fill="#979797"/>
<path d="M6.85555 11L7.64268 10.2129L1.34375 3.91397L3.91397 1.34371L5.13265 2.5625L4.24845 3.44656L4.9465 4.14456L5.8307 3.26055L6.54123 3.97102L5.65703 4.85515L6.35509 5.55308L7.23936 4.66907L7.94982 5.37966L6.64172 6.68744L7.33997 7.3855L8.64789 6.07759L9.51421 6.94385L8.63 7.82816L9.32807 8.52609L10.2123 7.6419L10.2129 7.64255L11 6.85543L4.30747 0.163062C4.09011 -0.054354 3.73777 -0.054354 3.52041 0.163062L0.163074 3.5204C-0.0543581 3.73777 -0.0543581 4.09016 0.163074 4.30752L6.85555 11Z" fill="#979797"/>
<path d="M23.8419 19.8209C23.8321 19.8111 23.822 19.8017 23.8117 19.7928L17.0195 13L14.9875 15.0322L15.6631 15.7079L16.9317 14.4392L22.6957 20.2037L20.2029 22.6966L13.7634 16.2564L13 17.02L19.8212 23.8418C20.032 24.0527 20.3737 24.0527 20.5846 23.8418L23.8408 20.5855C23.8411 20.5851 23.8415 20.5848 23.8419 20.5844C24.0527 20.3736 24.0527 20.0317 23.8419 19.8209Z" fill="#979797"/>
</g>
<defs>
<clipPath id="clip0_781_5700">
<rect width="24" height="24" fill="white"/>
</clipPath>
</defs>
</svg>
