<svg width="26" height="26" viewBox="0 0 26 26" fill="none" xmlns="http://www.w3.org/2000/svg">
<g clip-path="url(#clip0_765_3538)">
<circle cx="13" cy="13" r="12.5" fill="#E98A3F" stroke="#E98A3F"/>
<path d="M9.678 11C10.0523 11 10.356 10.7329 10.356 10.4037V8.07826C10.356 7.03866 11.3177 6.19255 12.4998 6.19255C13.6819 6.19255 14.644 7.03866 14.644 8.07826V10.4037C14.644 10.7329 14.9474 11 15.322 11C15.6963 11 16 10.7329 16 10.4037V8.07826C16.0003 6.38097 14.4301 5 12.4998 5C10.5702 5 9 6.38097 9 8.07826V10.4037C9 10.7329 9.30374 11 9.678 11Z" fill="white"/>
<path d="M19.7509 10H16.4041V10.7705C16.4041 11.452 15.8386 12.0062 15.1431 12.0062C14.4477 12.0062 13.8821 11.452 13.8821 10.7705V10H11.1554V10.7705C11.1554 11.452 10.5898 12.0062 9.89438 12.0062C9.19892 12.0062 8.63335 11.452 8.63335 10.7705V10H5.24906C5.07503 10 4.96753 10.1344 5.00883 10.3L7.21501 19.1038C7.34804 19.5987 7.87957 20 8.40164 20H16.5983C17.121 20 17.6519 19.5987 17.7856 19.1038L19.9912 10.3C20.0325 10.1341 19.9253 10 19.7509 10Z" fill="white"/>
</g>
<defs>
<clipPath id="clip0_765_3538">
<rect width="26" height="26" fill="white"/>
</clipPath>
</defs>
</svg>
