<svg width="34" height="34" viewBox="0 0 34 34" fill="none" xmlns="http://www.w3.org/2000/svg">
<path d="M13.7749 16C14.2026 16 14.5497 15.6438 14.5497 15.205V12.1043C14.5497 10.7182 15.6488 9.59006 16.9998 9.59006C18.3508 9.59006 19.4503 10.7182 19.4503 12.1043V15.205C19.4503 15.6438 19.797 16 20.2251 16C20.6529 16 21 15.6438 21 15.205V12.1043C21.0004 9.84129 19.2058 8 16.9998 8C14.7946 8 13 9.84129 13 12.1043V15.205C13 15.6438 13.3471 16 13.7749 16Z" fill="#979797"/>
<path d="M25.7011 14H21.685V14.9246C21.685 15.7424 21.0063 16.4075 20.1717 16.4075C19.3372 16.4075 18.6585 15.7424 18.6585 14.9246V14H15.3865V14.9246C15.3865 15.7424 14.7078 16.4075 13.8733 16.4075C13.0387 16.4075 12.36 15.7424 12.36 14.9246V14H8.29887C8.09004 14 7.96104 14.1613 8.0106 14.36L10.658 24.9245C10.8177 25.5184 11.4555 26 12.082 26H21.918C22.5453 26 23.1823 25.5184 23.3427 24.9245L25.9894 14.36C26.0389 14.1609 25.9103 14 25.7011 14Z" fill="#979797"/>
<circle cx="17" cy="17" r="16.5" stroke="#E98A3F"/>
</svg>
