<svg width="60" height="60" viewBox="0 0 60 60" fill="none" xmlns="http://www.w3.org/2000/svg">
<rect width="60" height="60" rx="30" fill="#E98A3F"/>
<g clip-path="url(#clip0_781_7939)">
<path d="M17.9999 30H16.9999M29.9999 17V18M42.9999 30H41.9999M29.9999 32V21M27.9999 30H37.9999M29.9999 42V43M29.9999 15C27.0332 15 24.4667 16.3518 21.9999 18C19.5332 19.6482 17.1352 21.2591 15.9999 24C14.8646 26.7409 14.4212 30.0903 14.9999 33C15.5787 35.9097 16.9021 38.9023 18.9999 41C21.0977 43.0978 24.0902 44.4212 26.9999 45C29.9096 45.5787 33.2591 45.1353 35.9999 44C38.7409 42.8647 40.3517 40.4667 41.9999 38C43.6481 35.5333 44.9999 32.9667 44.9999 30C44.9999 26.0217 43.813 21.813 40.9999 19C38.1869 16.187 33.9782 15 29.9999 15Z" stroke="white" stroke-width="1.41176" stroke-linejoin="round"/>
</g>
<defs>
<clipPath id="clip0_781_7939">
<rect width="34" height="32" fill="white" transform="translate(13 14)"/>
</clipPath>
</defs>
</svg>
