<svg width="60" height="60" viewBox="0 0 60 60" fill="none" xmlns="http://www.w3.org/2000/svg">
<rect x="0.00390625" width="60" height="60" rx="30" fill="#E98A3F"/>
<path d="M28.832 44.1641C20.2773 31.8594 18.7539 30.5703 18.7539 26C18.7539 19.7891 23.7344 14.75 30.0039 14.75C36.2148 14.75 41.2539 19.7891 41.2539 26C41.2539 30.5703 39.6719 31.8594 31.1172 44.1641C30.5898 44.9844 29.3594 44.9844 28.832 44.1641ZM30.0039 30.6875C32.582 30.6875 34.6914 28.6367 34.6914 26C34.6914 23.4219 32.582 21.3125 30.0039 21.3125C27.3672 21.3125 25.3164 23.4219 25.3164 26C25.3164 28.6367 27.3672 30.6875 30.0039 30.6875Z" fill="white"/>
</svg>
