<svg width="60" height="61" viewBox="0 0 60 61" fill="none" xmlns="http://www.w3.org/2000/svg">
<rect x="0.00390625" y="0.261719" width="60" height="60" rx="30" fill="#E98A3F"/>
<path d="M44.125 36.2227C44.5938 36.457 44.9453 36.9844 44.9453 37.5703C44.9453 37.6289 44.9453 37.7461 44.9453 37.8633L43.5391 43.957C43.3633 44.6016 42.8359 45.0117 42.1914 45.0117C27.1328 45.0117 15.0039 32.8828 15.0039 17.8242C15.0039 17.1797 15.4141 16.6523 16.0586 16.4766L22.1523 15.0703C22.2695 15.0703 22.3867 15.0117 22.4453 15.0117C23.0312 15.0117 23.5586 15.3633 23.793 15.8906L26.6055 22.4531C26.6641 22.6289 26.7227 22.8047 26.7227 22.9805C26.7227 23.4492 26.4883 23.8594 26.1953 24.0938L22.6211 27.0234C24.7891 31.5938 28.4219 35.2266 32.9922 37.3945L35.9219 33.8203C36.1562 33.5273 36.5664 33.293 36.9766 33.293C37.2109 33.293 37.3867 33.3516 37.5625 33.4102L44.125 36.2227Z" fill="white"/>
</svg>
