<svg width="24" height="24" viewBox="0 0 24 24" fill="none" xmlns="http://www.w3.org/2000/svg">
<path d="M21.9869 5.24145C21.8191 5.26447 21.6513 5.27368 21.4835 5.27368C19.8569 5.27368 18.4586 4.29737 17.8574 2.90658C17.6523 2.43684 17.5404 1.92105 17.5404 1.37763C17.5404 1.24868 17.5451 1.12434 17.5591 1H5.44092C5.4549 1.12434 5.45956 1.24868 5.45956 1.37763C5.45956 1.92105 5.3477 2.43684 5.14262 2.90658C4.54138 4.29737 3.14313 5.27368 1.5165 5.27368C1.34405 5.27368 1.17626 5.26447 1.01313 5.24145C1.07838 7.08355 -0.19869 18.3342 11.5 22C23.1987 18.3342 21.9216 7.08355 21.9869 5.24145ZM18.9667 13.1118C18.3468 14.6592 17.4519 16.0039 16.3053 17.1046C15.0376 18.3204 13.4249 19.2829 11.5 19.9599C9.57508 19.2829 7.96243 18.3204 6.69468 17.1046C5.54812 16.0039 4.65324 14.6592 4.03335 13.1118C3.13381 10.8599 2.97068 8.58026 2.95669 7.02829C4.71849 6.59079 6.20529 5.36579 6.94171 3.66645C7.04424 3.42697 7.1328 3.18289 7.20271 2.93421H15.8019C15.8719 3.18289 15.9604 3.43158 16.063 3.67105C16.7994 5.37039 18.2862 6.59539 20.048 7.03289C20.0293 8.58026 19.8662 10.8599 18.9667 13.1118Z" fill="#979797"/>
<path d="M15.7917 7.66667L16.5509 6.90741C16.7037 6.75463 16.7037 6.50926 16.5509 6.35648L15.6435 5.44907C15.4907 5.2963 15.2454 5.2963 15.0926 5.44907L14.3333 6.20833C13.7963 5.85185 13.1852 5.59722 12.5324 5.46296V4.38889C12.5324 4.17593 12.3565 4 12.1435 4H10.8565C10.6435 4 10.4676 4.17593 10.4676 4.38889V5.46296C9.81482 5.59722 9.2037 5.85185 8.66667 6.20833L7.90741 5.44907C7.75463 5.2963 7.50926 5.2963 7.35648 5.44907L6.44907 6.35648C6.2963 6.50926 6.2963 6.75463 6.44907 6.90741L7.20833 7.66667C6.85185 8.2037 6.59259 8.81482 6.46296 9.46759H5.38889C5.17593 9.46759 5 9.64352 5 9.85648V11.1435C5 11.3565 5.17593 11.5324 5.38889 11.5324H6.46296C6.59722 12.1852 6.85185 12.7963 7.20833 13.3333L6.44907 14.0926C6.2963 14.2454 6.2963 14.4907 6.44907 14.6435L7.35648 15.5509C7.50926 15.7037 7.75463 15.7037 7.90741 15.5509L8.66667 14.7917C9.2037 15.1481 9.81482 15.4028 10.4676 15.537V16.6111C10.4676 16.8241 10.6435 17 10.8565 17H12.1435C12.3565 17 12.5324 16.8241 12.5324 16.6111V15.537C13.1852 15.4028 13.7963 15.1481 14.3333 14.7917L15.0926 15.5509C15.2454 15.7037 15.4907 15.7037 15.6435 15.5509L16.5509 14.6435C16.7037 14.4907 16.7037 14.2454 16.5509 14.0926L15.7917 13.3333C16.1481 12.7963 16.4074 12.1852 16.537 11.5324H17.6111C17.8241 11.5324 18 11.3565 18 11.1435V9.85648C18 9.63889 17.8241 9.46759 17.6111 9.46759H16.537C16.4028 8.81482 16.1481 8.2037 15.7917 7.66667ZM12.4213 13.8102V12.2407C13.0231 11.912 13.4352 11.2731 13.4352 10.537C13.4352 9.74537 12.9583 9.06018 12.2731 8.76389V10.4954H10.7269V8.76852C10.0417 9.06482 9.56482 9.75 9.56482 10.5417C9.56482 11.2778 9.97222 11.9167 10.5787 12.2454V13.8148C9.125 13.412 8.06019 12.0787 8.06019 10.5C8.06019 8.60185 9.60185 7.06019 11.5 7.06019C13.3981 7.06019 14.9398 8.60185 14.9398 10.5C14.9398 12.0787 13.875 13.412 12.4213 13.8102Z" fill="#979797"/>
</svg>
