<svg width="15" height="15" viewBox="0 0 15 15" fill="none" xmlns="http://www.w3.org/2000/svg">
<path d="M4.678 6C5.05225 6 5.356 5.73287 5.356 5.40373V3.07826C5.356 2.03866 6.31774 1.19255 7.49983 1.19255C8.68192 1.19255 9.644 2.03866 9.644 3.07826V5.40373C9.644 5.73287 9.94741 6 10.322 6C10.6963 6 11 5.73287 11 5.40373V3.07826C11.0003 1.38097 9.43009 0 7.49983 0C5.57025 0 4 1.38097 4 3.07826V5.40373C4 5.73287 4.30374 6 4.678 6Z" fill="white"/>
<path d="M14.7509 5H11.4041V5.77049C11.4041 6.45201 10.8386 7.00624 10.1431 7.00624C9.44765 7.00624 8.88208 6.45201 8.88208 5.77049V5H6.15542V5.77049C6.15542 6.45201 5.58984 7.00624 4.89438 7.00624C4.19892 7.00624 3.63335 6.45201 3.63335 5.77049V5H0.249057C0.0750344 5 -0.0324686 5.13439 0.00883024 5.29998L2.21501 14.1038C2.34804 14.5987 2.87957 15 3.40164 15H11.5983C12.121 15 12.6519 14.5987 12.7856 14.1038L14.9912 5.29998C15.0325 5.13408 14.9253 5 14.7509 5Z" fill="white"/>
</svg>
