<svg width="25" height="24" viewBox="0 0 25 24" fill="none" xmlns="http://www.w3.org/2000/svg">
<g clip-path="url(#clip0_765_3482)">
<path d="M0 13.7892H24M14.8902 19.9999H9.10976M10.5366 20V16.7343M13.4634 20V16.7343M1.875 16.7343H22.125C23.1605 16.7343 24 15.8836 24 14.8343V2.89999C24 1.85065 23.1605 1 22.125 1H1.875C0.839467 1 0 1.85065 0 2.89999V14.8343C0 15.8836 0.839467 16.7343 1.875 16.7343Z" stroke="#E98A3F" stroke-linecap="round" stroke-linejoin="round"/>
<path d="M9.45012 9.6C9.45012 9.6 9.63157 8.4 13 8.4C16.3684 8.4 16.5499 9.6 16.5499 9.6M9.45012 9.6L9.69566 10.8H16.3043L16.5499 9.6M9.45012 9.6L9 7.40001H9.94889C10.4612 7.40001 10.8764 7.75818 10.8764 8.19999V8.49999M16.5499 9.6L17 7.40001H16.0511C15.5388 7.40001 15.1236 7.75818 15.1236 8.19999V8.49999M15.9474 7.40001V4.59999C15.9474 3.71634 15.1933 3 14.2632 3H11.7368C10.8067 3 10.0526 3.71634 10.0526 4.59999V7.40001M15.1053 10.8L15.5263 12M10.8947 10.8L10.4737 12" stroke="#E98A3F" stroke-linecap="round" stroke-linejoin="round"/>
<path d="M17 12H23V20.25V23H17V20.25V12Z" fill="white"/>
<path d="M17 20.25V23H23V20.25M17 20.25V12H23V20.25M17 20.25H23" stroke="#E98A3F" stroke-linecap="round" stroke-linejoin="round"/>
<mask id="path-5-inside-1_765_3482" fill="white">
<path d="M12.5 16C12.7761 16 13 15.7761 13 15.5C13 15.2239 12.7761 15 12.5 15C12.2239 15 12 15.2239 12 15.5C12 15.7761 12.2239 16 12.5 16Z"/>
</mask>
<path d="M12.5 16C12.7761 16 13 15.7761 13 15.5C13 15.2239 12.7761 15 12.5 15C12.2239 15 12 15.2239 12 15.5C12 15.7761 12.2239 16 12.5 16Z" fill="#E98A3F"/>
<path d="M13 15.5H12C12 15.2239 12.2239 15 12.5 15V16V17C13.3284 17 14 16.3284 14 15.5H13ZM12.5 16V15C12.7761 15 13 15.2239 13 15.5H12H11C11 16.3284 11.6716 17 12.5 17V16ZM12 15.5H13C13 15.7761 12.7761 16 12.5 16V15V14C11.6716 14 11 14.6716 11 15.5H12ZM12.5 15V16C12.2239 16 12 15.7761 12 15.5H13H14C14 14.6716 13.3284 14 12.5 14V15Z" fill="#E98A3F" mask="url(#path-5-inside-1_765_3482)"/>
<mask id="path-7-inside-2_765_3482" fill="white">
<path d="M20.5 22C20.7761 22 21 21.7761 21 21.5C21 21.2239 20.7761 21 20.5 21C20.2239 21 20 21.2239 20 21.5C20 21.7761 20.2239 22 20.5 22Z"/>
</mask>
<path d="M20.5 22C20.7761 22 21 21.7761 21 21.5C21 21.2239 20.7761 21 20.5 21C20.2239 21 20 21.2239 20 21.5C20 21.7761 20.2239 22 20.5 22Z" fill="#E98A3F"/>
<path d="M21 21.5H20C20 21.2239 20.2239 21 20.5 21V22V23C21.3284 23 22 22.3284 22 21.5H21ZM20.5 22V21C20.7761 21 21 21.2239 21 21.5H20H19C19 22.3284 19.6716 23 20.5 23V22ZM20 21.5H21C21 21.7761 20.7761 22 20.5 22V21V20C19.6716 20 19 20.6716 19 21.5H20ZM20.5 21V22C20.2239 22 20 21.7761 20 21.5H21H22C22 20.6716 21.3284 20 20.5 20V21Z" fill="#E98A3F" mask="url(#path-7-inside-2_765_3482)"/>
<path d="M19 6H21" stroke="#E98A3F" stroke-linecap="round" stroke-linejoin="round"/>
<path d="M19 8H23" stroke="#E98A3F" stroke-linecap="round" stroke-linejoin="round"/>
<path d="M2 3H5V6H2V3Z" stroke="#E98A3F" stroke-linecap="round" stroke-linejoin="round"/>
<path d="M19 3H23" stroke="#E98A3F" stroke-linecap="round" stroke-linejoin="round"/>
</g>
<defs>
<clipPath id="clip0_765_3482">
<rect width="25" height="24" fill="white"/>
</clipPath>
</defs>
</svg>
