<svg width="24" height="24" viewBox="0 0 24 24" fill="none" xmlns="http://www.w3.org/2000/svg">
<g clip-path="url(#clip0_765_3497)">
<path d="M13 14C14.6569 14 16 12.6569 16 11C16 9.34315 14.6569 8 13 8C11.3431 8 10 9.34315 10 11C10 12.6569 11.3431 14 13 14Z" stroke="#E98A3F"/>
<path d="M21.5 5C22.8807 5 24 3.88071 24 2.5C24 1.11929 22.8807 0 21.5 0C20.1193 0 19 1.11929 19 2.5C19 3.88071 20.1193 5 21.5 5Z" stroke="#E98A3F"/>
<path d="M12.5 24C13.8807 24 15 22.8807 15 21.5C15 20.1193 13.8807 19 12.5 19C11.1193 19 10 20.1193 10 21.5C10 22.8807 11.1193 24 12.5 24Z" stroke="#E98A3F"/>
<path d="M2.5 23C3.88071 23 5 21.8807 5 20.5C5 19.1193 3.88071 18 2.5 18C1.11929 18 0 19.1193 0 20.5C0 21.8807 1.11929 23 2.5 23Z" stroke="#E98A3F"/>
<path d="M19.5 20C20.3284 20 21 19.3284 21 18.5C21 17.6716 20.3284 17 19.5 17C18.6716 17 18 17.6716 18 18.5C18 19.3284 18.6716 20 19.5 20Z" stroke="#E98A3F"/>
<path d="M5.5 6C6.32843 6 7 5.32843 7 4.5C7 3.67157 6.32843 3 5.5 3C4.67157 3 4 3.67157 4 4.5C4 5.32843 4.67157 6 5.5 6Z" stroke="#E98A3F"/>
<path d="M7 5L11 9" stroke="#E98A3F"/>
<path d="M20 4L15 8.33329M15 13.0606L18.9583 17" stroke="#E98A3F"/>
<path d="M13 14V19" stroke="#E98A3F"/>
<path d="M10 13L4 19" stroke="#E98A3F"/>
</g>
<defs>
<clipPath id="clip0_765_3497">
<rect width="24" height="24" fill="white"/>
</clipPath>
</defs>
</svg>
