<svg width="24" height="24" viewBox="0 0 24 24" fill="none" xmlns="http://www.w3.org/2000/svg">
<path d="M12 2.5C16.6793 2.5 20.4999 6.25647 20.5 10.9248V14.2998C20.5 18.8073 16.6905 22.5 12 22.5C11.8886 22.5 11.8344 22.4653 11.8096 22.4404C11.7847 22.4156 11.75 22.3614 11.75 22.25V20.75C11.75 20.6386 11.7847 20.5844 11.8096 20.5596C11.8344 20.5347 11.8886 20.5 12 20.5H14.25C14.3614 20.5 14.4156 20.5347 14.4404 20.5596C14.4653 20.5844 14.5 20.6386 14.5 20.75V21.6445L15.1895 21.3623C16.9422 20.6452 18.3923 19.3636 19.2012 17.665L19.707 16.6045L18.5918 16.9756C18.1492 17.1231 17.6892 17.25 17.25 17.25C17.1386 17.25 17.0844 17.2153 17.0596 17.1904C17.0347 17.1656 17 17.1114 17 17V11C17 10.8886 17.0347 10.8344 17.0596 10.8096C17.0844 10.7847 17.1386 10.75 17.25 10.75C17.9617 10.75 18.6826 11.0122 19.2002 11.4004L20 12V10.9248C19.9999 6.51723 16.3945 3 12 3C7.6089 3 4.00022 6.51384 4 10.8496V12L4.7998 11.4004C5.3174 11.0122 6.03826 10.75 6.75 10.75C6.86138 10.75 6.91557 10.7847 6.94043 10.8096C6.96529 10.8344 7 10.8886 7 11V17C7 17.1114 6.96529 17.1656 6.94043 17.1904C6.91557 17.2153 6.86138 17.25 6.75 17.25C4.92614 17.25 3.5 15.8239 3.5 14V10.9248C3.50011 6.25647 7.32074 2.5 12 2.5Z" fill="#E98A3F" stroke="#E98A3F"/>
</svg>
