<svg width="24" height="24" viewBox="0 0 24 24" fill="none" xmlns="http://www.w3.org/2000/svg">
<g clip-path="url(#clip0_765_3470)">
<path d="M21.4059 0H1.59406C0.713685 0 0 0.799793 0 1.78639V13.2136C0 14.2002 0.713685 15 1.59406 15H21.4059C22.2863 15 23 14.2002 23 13.2136V1.78639C23 0.799793 22.2863 0 21.4059 0Z" stroke="#E98A3F"/>
<path d="M3.9467 15L2.00991 22.6358C1.96362 22.8183 2.08528 23 2.2538 23H3.75863C3.87033 23 3.9689 22.9177 4.00135 22.7973L6.10271 15M20.0533 15L21.9901 22.6358C22.0364 22.8183 21.9147 23 21.7462 23H20.2414C20.1297 23 20.0311 22.9177 19.9986 22.7973L17.8973 15" stroke="#E98A3F"/>
<path d="M6.5 6C7.32843 6 8 5.32843 8 4.5C8 3.67157 7.32843 3 6.5 3C5.67157 3 5 3.67157 5 4.5C5 5.32843 5.67157 6 6.5 6Z" stroke="#E98A3F"/>
<path d="M9.5 13C10.3284 13 11 12.3284 11 11.5C11 10.6716 10.3284 10 9.5 10C8.67157 10 8 10.6716 8 11.5C8 12.3284 8.67157 13 9.5 13Z" stroke="#E98A3F"/>
<path d="M11 11C13.2091 11 15 8.76143 15 6V3" stroke="#E98A3F"/>
<path d="M18 10L20 12M20 10L18 12" stroke="#E98A3F" stroke-linecap="round"/>
<path d="M16 4L15 3L14 4" stroke="#E98A3F" stroke-linecap="round"/>
</g>
<defs>
<clipPath id="clip0_765_3470">
<rect width="24" height="24" fill="white"/>
</clipPath>
</defs>
</svg>
