<svg width="24" height="24" viewBox="0 0 24 24" fill="none" xmlns="http://www.w3.org/2000/svg">
<g clip-path="url(#clip0_781_5691)">
<path d="M20 11.83C19.7348 11.83 19.4804 11.9354 19.2929 12.1229C19.1054 12.3104 19 12.5648 19 12.83V18.4C19 18.5591 18.9368 18.7117 18.8243 18.8243C18.7117 18.9368 18.5591 19 18.4 19H5.6C5.44087 19 5.28826 18.9368 5.17574 18.8243C5.06321 18.7117 5 18.5591 5 18.4V5.6C5 5.44087 5.06321 5.28826 5.17574 5.17574C5.28826 5.06321 5.44087 5 5.6 5H15.17C15.4352 5 15.6896 4.89464 15.8771 4.70711C16.0646 4.51957 16.17 4.26522 16.17 4C16.17 3.73478 16.0646 3.48043 15.8771 3.29289C15.6896 3.10536 15.4352 3 15.17 3H5.6C4.91125 3.00263 4.25146 3.27741 3.76443 3.76443C3.27741 4.25146 3.00263 4.91125 3 5.6V18.4C3.00263 19.0888 3.27741 19.7485 3.76443 20.2356C4.25146 20.7226 4.91125 20.9974 5.6 21H18.4C19.0888 20.9974 19.7485 20.7226 20.2356 20.2356C20.7226 19.7485 20.9974 19.0888 21 18.4V12.83C21 12.5648 20.8946 12.3104 20.7071 12.1229C20.5196 11.9354 20.2652 11.83 20 11.83Z" fill="#979797"/>
<path d="M10.6759 10.9819C10.4874 10.8132 10.2418 10.7217 9.98839 10.7257C9.73496 10.7296 9.49242 10.8289 9.30942 11.0034C9.12642 11.1779 9.0165 11.4149 9.00171 11.6667C8.98692 11.9186 9.06835 12.1666 9.22967 12.3612L11.4592 14.6901C11.5526 14.7876 11.6647 14.8653 11.789 14.9185C11.9132 14.9718 12.047 14.9995 12.1823 15C12.3169 15.0008 12.4502 14.9746 12.5745 14.9231C12.6987 14.8716 12.8112 14.7958 12.9054 14.7001L19.7146 7.70339C19.8069 7.60889 19.8796 7.49721 19.9286 7.37473C19.9775 7.25226 20.0018 7.12138 19.9999 6.98959C19.998 6.85779 19.9701 6.72765 19.9177 6.60659C19.8653 6.48554 19.7895 6.37594 19.6945 6.28406C19.5995 6.19218 19.4873 6.11981 19.3643 6.07109C19.2412 6.02236 19.1097 5.99824 18.9773 6.0001C18.8449 6.00196 18.7141 6.02975 18.5925 6.08191C18.4708 6.13406 18.3607 6.20954 18.2684 6.30405L12.1924 12.5611L10.6759 10.9819Z" fill="#979797"/>
</g>
<defs>
<clipPath id="clip0_781_5691">
<rect width="24" height="24" fill="white"/>
</clipPath>
</defs>
</svg>
