<svg width="24" height="24" viewBox="0 0 24 24" fill="none" xmlns="http://www.w3.org/2000/svg">
<path fill-rule="evenodd" clip-rule="evenodd" d="M11 4C7.13401 4 4 7.13401 4 11C4 14.866 7.13401 18 11 18C14.866 18 18 14.866 18 11C18 7.13401 14.866 4 11 4ZM2 11C2 6.02944 6.02944 2 11 2C15.9706 2 20 6.02944 20 11C20 15.9706 15.9706 20 11 20C6.02944 20 2 15.9706 2 11Z" fill="#979797"/>
<path fill-rule="evenodd" clip-rule="evenodd" d="M16.2767 16.2767C16.6457 15.9078 17.244 15.9078 17.613 16.2767L21.7233 20.387C22.0922 20.756 22.0922 21.3543 21.7233 21.7233C21.3543 22.0922 20.756 22.0922 20.387 21.7233L16.2767 17.613C15.9078 17.244 15.9078 16.6457 16.2767 16.2767Z" fill="#979797"/>
</svg>
