<svg width="24" height="24" viewBox="0 0 24 24" fill="none" xmlns="http://www.w3.org/2000/svg">
<path d="M11.2974 14C11.2974 14 10.9982 15.0622 11 15.0671L11.4755 16H12.5245L13 15.0671C12.9964 15.0498 12.7026 14 12.7026 14C12.6679 14.0074 11.3322 14.0074 11.2974 14Z" fill="#979797"/>
<path d="M9.06036 8.57115C9.76844 10.5191 11.1021 12 13.0006 12C14.829 12 16.1823 10.5405 16.9141 8.59538C18.3911 7.19496 18.0427 6.14828 17.7015 5.6482C18.5034 2.03715 16.0514 0 12.8605 0C7.14125 0 8.13894 5.89242 8.13894 5.89242C8.14512 5.89339 8.15234 5.89339 8.15852 5.89436C7.89673 6.44872 7.81943 7.38104 9.06036 8.57115ZM11.4484 4.19641L11.031 5.65886C13.0728 5.07349 13.3469 4.75174 13.6685 4.53174C14.0024 4.30399 14.2849 4.07236 14.5137 3.86206C14.6188 4.04038 14.7517 4.2032 14.9033 4.35051C15.0548 4.49976 15.2784 2.99661 15.2784 2.99661C15.2784 2.99661 15.8432 3.90955 15.9216 4.20514C15.9772 4.41447 16.3328 5.26151 16.5255 5.33904C16.4534 8.13503 15.1197 11.057 13.0006 11.057C11.0269 11.057 9.73442 8.52269 9.50768 5.91568C10.0488 5.88467 11.4484 4.19641 11.4484 4.19641Z" fill="#979797"/>
<path d="M22.5119 17.1822C21.3537 14.2343 18.709 13.0174 18.6738 13.0008L15.8641 12L15.4928 12.8762L16.2767 13.1556L13.4178 22.2827L13.0565 16.1541H11.9435L11.5873 22.1707L8.75949 13.1429L9.51121 12.8762L9.13585 12.001L6.36041 12.9882L6.32519 13.0028C6.28997 13.0193 3.64534 14.2362 2.48706 17.1842C2.25158 17.7848 2.07749 18.4576 2 19.2062C4.49066 22.1308 8.26538 23.9981 12.4909 24C12.497 24 12.503 24 12.5101 24C12.7385 24 12.9649 23.9942 13.1903 23.9825C13.1954 23.9825 13.2004 23.9825 13.2054 23.9825C17.1472 23.7868 20.6462 21.9692 23 19.2043C22.9215 18.4556 22.7484 17.7819 22.5119 17.1822ZM15.2674 20.2119C15.2986 20.2148 17.274 20.4387 18.8117 19.6716V20.2625C17.6514 20.7133 16.4579 20.7931 15.7696 20.7931C15.5381 20.7931 15.365 20.7834 15.2674 20.7775V20.2119Z" fill="#979797"/>
</svg>
