<svg width="526" height="135" viewBox="0 0 526 135" fill="none" xmlns="http://www.w3.org/2000/svg">
<rect x="3.00391" y="0.972656" width="45.0907" height="126.254" fill="#FFAE63"/>
<rect x="55.6172" y="0.972656" width="45.0907" height="126.254" fill="#F88A24"/>
<path d="M12.0244 122.72H52.6055V3.98047H64.6299V122.72H105.213V3.98047H117.237V134.743H117.236L0 134.744V3.98047H12.0244V122.72ZM25.5508 73.1191H19.5391V59.5928H25.5508V73.1191ZM78.1562 73.1191H72.1445V59.5928H78.1562V73.1191Z" fill="#131313"/>
<path d="M135.445 115.481V68.3682H142.283V90.3541L162.012 68.3682H170.518L149.677 91.3683L172.056 115.481H163.287L142.283 92.9714V115.481H135.445Z" fill="#131313"/>
<path d="M173.389 115.481L188.701 68.3682H198.549L213.86 115.481H206.761L192.66 72.4906H194.426L180.489 115.481H173.389ZM181.34 104.848V98.4352H205.943V104.848H181.34Z" fill="#131313"/>
<path d="M234.32 115.481V108.905C231.899 109.319 229.576 109.221 227.351 108.61C225.148 107.999 223.174 106.909 221.429 105.338C219.706 103.768 218.343 101.74 217.34 99.2531C216.336 96.7666 215.835 93.8657 215.835 90.5504C215.835 87.2132 216.336 84.3014 217.34 81.8149C218.343 79.3066 219.706 77.2563 221.429 75.6641C223.174 74.0719 225.148 72.9595 227.351 72.327C229.576 71.6726 231.899 71.5527 234.32 71.9671V68.3682H241.125V71.9671C243.546 71.5527 245.858 71.6726 248.061 72.327C250.286 72.9595 252.26 74.0719 253.983 75.6641C255.728 77.2563 257.102 79.3066 258.105 81.8149C259.13 84.3014 259.643 87.2132 259.643 90.5504C259.643 93.8657 259.13 96.7666 258.105 99.2531C257.102 101.74 255.728 103.768 253.983 105.338C252.26 106.909 250.286 107.999 248.061 108.61C245.858 109.221 243.546 109.319 241.125 108.905V115.481H234.32ZM234.32 102.557V78.216C232.357 77.9107 230.644 78.0416 229.183 78.6086C227.744 79.1757 226.555 80.0591 225.617 81.2587C224.679 82.4365 223.981 83.8325 223.523 85.4465C223.065 87.0387 222.836 88.74 222.836 90.5504C222.836 92.3389 223.065 94.0293 223.523 95.6215C223.981 97.1919 224.679 98.5551 225.617 99.7111C226.555 100.845 227.744 101.674 229.183 102.198C230.644 102.721 232.357 102.841 234.32 102.557ZM241.125 102.557C243.088 102.841 244.789 102.721 246.229 102.198C247.668 101.674 248.857 100.845 249.795 99.7111C250.755 98.5769 251.463 97.2355 251.921 95.6869C252.401 94.1165 252.641 92.4588 252.641 90.7139C252.641 88.969 252.401 87.2896 251.921 85.6755C251.463 84.0615 250.755 82.6437 249.795 81.4223C248.857 80.1791 247.668 79.263 246.229 78.6741C244.789 78.0634 243.088 77.9107 241.125 78.216V102.557Z" fill="#131313"/>
<path d="M293.733 115.481V94.1492L295.009 96.2104C293.679 97.2792 291.912 98.1298 289.709 98.7623C287.506 99.373 285.118 99.6784 282.544 99.6784C278.531 99.6784 275.324 98.915 272.925 97.3882C270.548 95.8396 268.825 93.713 267.756 91.0084C266.709 88.3038 266.186 85.1957 266.186 81.6841V68.3682H273.122V79.492C273.122 81.3024 273.252 83.0254 273.514 84.6613C273.776 86.2971 274.278 87.7585 275.019 89.0454C275.761 90.3104 276.84 91.3138 278.258 92.0553C279.676 92.7751 281.53 93.135 283.82 93.135C286.481 93.135 288.76 92.7097 290.658 91.859C292.555 90.9866 293.919 90.0596 294.747 89.0781L293.733 93.0041V68.3682H300.637V115.481H293.733Z" fill="#131313"/>
<path d="M346.834 115.481H339.898V80.4408L316.702 115.481H309.766V68.3682H316.702V103.375L339.898 68.3682H346.834V115.481Z" fill="#131313"/>
<path d="M355.966 115.481V68.3682H362.803V90.3541L382.532 68.3682H391.038L370.197 91.3683L392.576 115.481H383.808L362.803 92.9714V115.481H355.966Z" fill="#131313"/>
<path d="M414.416 116.462C409.705 116.462 405.692 115.437 402.376 113.387C399.061 111.315 396.52 108.436 394.753 104.75C393.008 101.063 392.136 96.7884 392.136 91.9245C392.136 87.0605 393.008 82.7855 394.753 79.0994C396.52 75.4133 399.061 72.5451 402.376 70.4948C405.692 68.4228 409.705 67.3867 414.416 67.3867C419.105 67.3867 423.108 68.4228 426.423 70.4948C429.76 72.5451 432.301 75.4133 434.046 79.0994C435.791 82.7855 436.664 87.0605 436.664 91.9245C436.664 96.7884 435.791 101.063 434.046 104.75C432.301 108.436 429.76 111.315 426.423 113.387C423.108 115.437 419.105 116.462 414.416 116.462ZM414.416 109.952C417.753 109.995 420.523 109.264 422.726 107.76C424.951 106.233 426.619 104.117 427.732 101.412C428.844 98.686 429.4 95.5233 429.4 91.9245C429.4 88.3256 428.844 85.1848 427.732 82.502C426.619 79.7974 424.951 77.6926 422.726 76.1876C420.523 74.6826 417.753 73.9192 414.416 73.8974C411.079 73.8538 408.298 74.5845 406.073 76.0894C403.87 77.5944 402.213 79.7101 401.1 82.4365C399.988 85.163 399.421 88.3256 399.399 91.9245C399.377 95.5233 399.922 98.6751 401.035 101.38C402.147 104.062 403.816 106.156 406.04 107.661C408.287 109.166 411.079 109.93 414.416 109.952Z" fill="#131313"/>
<path d="M443.19 115.481V68.3682H461.707C464.696 68.3682 467.204 68.9789 469.232 70.2004C471.261 71.4218 472.788 73.0031 473.813 74.9443C474.838 76.8637 475.35 78.8922 475.35 81.0297C475.35 83.6253 474.707 85.85 473.42 87.704C472.155 89.5579 470.443 90.823 468.284 91.4992L468.218 89.896C471.228 90.6376 473.54 92.0881 475.154 94.2474C476.768 96.3849 477.575 98.8823 477.575 101.74C477.575 104.51 477.019 106.92 475.907 108.97C474.816 111.02 473.213 112.623 471.097 113.779C469.003 114.914 466.462 115.481 463.474 115.481H443.19ZM450.126 108.97H462.427C463.976 108.97 465.361 108.676 466.582 108.087C467.826 107.498 468.796 106.658 469.494 105.567C470.214 104.455 470.574 103.136 470.574 101.609C470.574 100.191 470.257 98.915 469.625 97.7808C469.014 96.6248 468.12 95.7196 466.942 95.0653C465.786 94.3892 464.423 94.0511 462.853 94.0511H450.126V108.97ZM450.126 87.6058H461.609C462.874 87.6058 464.009 87.355 465.012 86.8533C466.037 86.3299 466.844 85.5883 467.433 84.6286C468.044 83.6471 468.349 82.4693 468.349 81.0951C468.349 79.263 467.738 77.758 466.517 76.5802C465.295 75.4024 463.66 74.8135 461.609 74.8135H450.126V87.6058Z" fill="#131313"/>
<path d="M503.749 116.462C499.038 116.462 495.024 115.437 491.709 113.387C488.394 111.315 485.853 108.436 484.086 104.75C482.341 101.063 481.469 96.7884 481.469 91.9245C481.469 87.0605 482.341 82.7855 484.086 79.0994C485.853 75.4133 488.394 72.5451 491.709 70.4948C495.024 68.4228 499.038 67.3867 503.749 67.3867C508.438 67.3867 512.441 68.4228 515.756 70.4948C519.093 72.5451 521.634 75.4133 523.379 79.0994C525.124 82.7855 525.996 87.0605 525.996 91.9245C525.996 96.7884 525.124 101.063 523.379 104.75C521.634 108.436 519.093 111.315 515.756 113.387C512.441 115.437 508.438 116.462 503.749 116.462ZM503.749 109.952C507.086 109.995 509.856 109.264 512.059 107.76C514.284 106.233 515.952 104.117 517.065 101.412C518.177 98.686 518.733 95.5233 518.733 91.9245C518.733 88.3256 518.177 85.1848 517.065 82.502C515.952 79.7974 514.284 77.6926 512.059 76.1876C509.856 74.6826 507.086 73.9192 503.749 73.8974C500.412 73.8538 497.631 74.5845 495.406 76.0894C493.203 77.5944 491.545 79.7101 490.433 82.4365C489.321 85.163 488.754 88.3256 488.732 91.9245C488.71 95.5233 489.255 98.6751 490.368 101.38C491.48 104.062 493.149 106.156 495.373 107.661C497.62 109.166 500.412 109.93 503.749 109.952Z" fill="#131313"/>
</svg>
