<svg width="24" height="24" viewBox="0 0 24 24" fill="none" xmlns="http://www.w3.org/2000/svg">
<path d="M18.2727 4H3.72727C2.22114 4 1 5.194 1 6.66667V17.3333C1 18.806 2.22114 20 3.72727 20H18.2727C19.7789 20 21 18.806 21 17.3333V6.66667C21 5.194 19.7789 4 18.2727 4ZM18.2727 5.77778C18.3777 5.77778 18.4786 5.79511 18.5723 5.82733L11 11.7507L3.42773 5.82733C3.52136 5.79511 3.62227 5.77778 3.72727 5.77778H18.2727ZM18.2727 18.2222H3.72727C3.22523 18.2222 2.81818 17.8242 2.81818 17.3333V7.62711L10.432 13.5829C10.598 13.7129 10.7989 13.7778 11 13.7778C11.2011 13.7778 11.402 13.7129 11.568 13.5829L19.1818 7.62711V17.3333C19.1818 17.8242 18.7748 18.2222 18.2727 18.2222Z" fill="#E98A3F"/>
</svg>
