<svg width="26" height="26" viewBox="0 0 26 26" fill="none" xmlns="http://www.w3.org/2000/svg">
<circle cx="13" cy="13" r="12.5" stroke="#E98A3F"/>
<path d="M8.84473 7.52832C9.01786 7.48747 9.175 7.49383 9.27734 7.52734V7.52832L9.45801 7.58887H9.45898C9.57075 7.62619 9.7187 7.72175 9.85547 7.86621C9.9579 7.97447 10.0323 8.08718 10.0762 8.18457L10.1094 8.27637L10.54 9.85449C10.5697 9.96432 10.5699 10.1319 10.5225 10.3145C10.4867 10.4519 10.432 10.5668 10.374 10.6484L10.3154 10.7188L9.74512 11.2891L9.54102 11.4941L9.61621 11.7734C10.2222 14.0188 11.9823 15.7789 14.2275 16.3857L14.5068 16.4619L15.2822 15.6865C15.3598 15.609 15.503 15.5272 15.6865 15.4795C15.869 15.4321 16.0367 15.4314 16.1465 15.4609V15.4619L17.7236 15.8926L17.7246 15.8936C17.8372 15.9242 17.9894 16.01 18.1338 16.1465C18.2783 16.2831 18.3741 16.432 18.4121 16.5449V16.5439L18.4717 16.7227C18.5057 16.825 18.5127 16.983 18.4717 17.1572C18.4409 17.2877 18.3904 17.3978 18.335 17.4766L18.2783 17.5449L17.4365 18.3857C17.4304 18.3895 17.4201 18.3958 17.4043 18.4033C17.3673 18.421 17.3192 18.4396 17.2656 18.457C17.2131 18.4741 17.163 18.488 17.126 18.4971C17.1222 18.498 17.1186 18.4982 17.1152 18.499C14.7239 18.5078 12.4192 17.6243 10.6523 16.0264L10.3037 15.6953C8.49389 13.8851 7.48604 11.4235 7.50098 8.86523C7.51044 8.82994 7.52528 8.78357 7.54199 8.73438C7.55957 8.68264 7.57797 8.63571 7.5957 8.59961C7.61214 8.56619 7.61921 8.55941 7.6123 8.56738L8.45801 7.72168C8.53379 7.64606 8.67085 7.56938 8.84473 7.52832Z" fill="#E98A3F" stroke="#E98A3F"/>
</svg>
