<svg width="35" height="35" viewBox="0 0 35 35" fill="none" xmlns="http://www.w3.org/2000/svg">
<path fill-rule="evenodd" clip-rule="evenodd" d="M17.5 10.5C17.9832 10.5 18.375 10.8918 18.375 11.375V23.625C18.375 24.1082 17.9832 24.5 17.5 24.5C17.0168 24.5 16.625 24.1082 16.625 23.625V11.375C16.625 10.8918 17.0168 10.5 17.5 10.5Z" fill="#212121"/>
<path fill-rule="evenodd" clip-rule="evenodd" d="M10.5 17.5C10.5 17.0168 10.8918 16.625 11.375 16.625H23.625C24.1082 16.625 24.5 17.0168 24.5 17.5C24.5 17.9832 24.1082 18.375 23.625 18.375H11.375C10.8918 18.375 10.5 17.9832 10.5 17.5Z" fill="#212121"/>
<circle cx="17.5" cy="17.5" r="16.5" stroke="black" stroke-width="2"/>
</svg>
