<svg width="15" height="15" viewBox="0 0 15 15" fill="none" xmlns="http://www.w3.org/2000/svg">
<path d="M4.89224 6.28911C5.24029 6.28911 5.52276 6.00911 5.52276 5.66411V3.22659C5.52276 2.13689 6.41716 1.25001 7.51647 1.25001C8.61579 1.25001 9.5105 2.13689 9.5105 3.22659V5.66411C9.5105 6.00911 9.79266 6.28911 10.141 6.28911C10.4891 6.28911 10.7715 6.00911 10.7715 5.66411V3.22659C10.7719 1.44751 9.31157 0 7.51647 0C5.72201 0 4.26172 1.44751 4.26172 3.22659V5.66411C4.26172 6.00911 4.54419 6.28911 4.89224 6.28911Z" fill="#131313"/>
<path d="M14.7511 4.88281H11.4043V5.66219C11.4043 6.35157 10.8387 6.9122 10.1432 6.9122C9.44774 6.9122 8.88216 6.35157 8.88216 5.66219V4.88281H6.15547V5.66219C6.15547 6.35157 5.58989 6.9122 4.89443 6.9122C4.19896 6.9122 3.63339 6.35157 3.63339 5.66219V4.88281H0.249059C0.0750351 4.88281 -0.0324689 5.01875 0.00883032 5.18625L2.21503 14.0916C2.34807 14.5923 2.8796 14.9982 3.40167 14.9982H11.5985C12.1212 14.9982 12.6521 14.5923 12.7857 14.0916L14.9913 5.18625C15.0326 5.01844 14.9254 4.88281 14.7511 4.88281Z" fill="#131313"/>
</svg>
