<svg width="24" height="24" viewBox="0 0 24 24" fill="none" xmlns="http://www.w3.org/2000/svg">
<path fill-rule="evenodd" clip-rule="evenodd" d="M3 1C3.55228 1 4 1.44772 4 2V7H9C9.55228 7 10 7.44772 10 8C10 8.55228 9.55228 9 9 9H3C2.44772 9 2 8.55228 2 8V2C2 1.44772 2.44772 1 3 1Z" fill="#979797"/>
<path fill-rule="evenodd" clip-rule="evenodd" d="M11.3889 2.06655C13.6267 1.94078 15.8418 2.57039 17.6788 3.85435C19.5159 5.13832 20.8683 7.00219 21.5192 9.14688C22.17 11.2916 22.0815 13.5927 21.2679 15.6811C20.4542 17.7695 18.9626 19.5239 17.0324 20.663C15.1021 21.8021 12.8452 22.2597 10.6237 21.9624C8.40225 21.6652 6.34505 20.6302 4.78223 19.0237C3.2194 17.4172 2.24157 15.3323 2.00564 13.1035C1.9475 12.5542 2.3456 12.0619 2.89481 12.0037C3.44403 11.9456 3.93639 12.3437 3.99453 12.8929C4.18327 14.676 4.96554 16.3439 6.2158 17.6291C7.46606 18.9143 9.11182 19.7423 10.889 19.9801C12.6662 20.2179 14.4717 19.8518 16.0159 18.9406C17.5601 18.0293 18.7534 16.6257 19.4043 14.955C20.0552 13.2843 20.126 11.4434 19.6053 9.72766C19.0847 8.01191 18.0027 6.52081 16.5331 5.49364C15.0634 4.46647 13.2913 3.96278 11.5012 4.06339C9.71266 4.16391 8.0097 4.86177 6.66502 6.04511L3.66905 8.74149C3.25854 9.11095 2.62625 9.07767 2.25679 8.66716C1.88733 8.25665 1.92061 7.62436 2.33112 7.2549L5.33893 4.54786C7.02053 3.06614 9.15118 2.19232 11.3889 2.06655Z" fill="#979797"/>
</svg>
