<svg width="35" height="35" viewBox="0 0 35 35" fill="none" xmlns="http://www.w3.org/2000/svg">
<circle cx="17.5" cy="17.5" r="17" stroke="#999999"/>
<g clip-path="url(#clip0_781_5678)">
<path d="M7 18C7 18.7956 7.31607 19.5587 7.87868 20.1213C8.44129 20.6839 9.20435 21 10 21C10.7956 21 11.5587 20.6839 12.1213 20.1213C12.6839 19.5587 13 18.7956 13 18C13 17.2044 12.6839 16.4413 12.1213 15.8787C11.5587 15.3161 10.7956 15 10 15C9.20435 15 8.44129 15.3161 7.87868 15.8787C7.31607 16.4413 7 17.2044 7 18Z" stroke="#999999" stroke-linecap="round" stroke-linejoin="round"/>
<path d="M19 12C19 12.7956 19.3161 13.5587 19.8787 14.1213C20.4413 14.6839 21.2044 15 22 15C22.7956 15 23.5587 14.6839 24.1213 14.1213C24.6839 13.5587 25 12.7956 25 12C25 11.2044 24.6839 10.4413 24.1213 9.87868C23.5587 9.31607 22.7956 9 22 9C21.2044 9 20.4413 9.31607 19.8787 9.87868C19.3161 10.4413 19 11.2044 19 12Z" stroke="#999999" stroke-linecap="round" stroke-linejoin="round"/>
<path d="M19 24C19 24.7956 19.3161 25.5587 19.8787 26.1213C20.4413 26.6839 21.2044 27 22 27C22.7956 27 23.5587 26.6839 24.1213 26.1213C24.6839 25.5587 25 24.7956 25 24C25 23.2044 24.6839 22.4413 24.1213 21.8787C23.5587 21.3161 22.7956 21 22 21C21.2044 21 20.4413 21.3161 19.8787 21.8787C19.3161 22.4413 19 23.2044 19 24Z" stroke="#999999" stroke-linecap="round" stroke-linejoin="round"/>
<path d="M13 16L20 13" stroke="#999999" stroke-linecap="round" stroke-linejoin="round"/>
<path d="M13 19L20 22" stroke="#999999" stroke-linecap="round" stroke-linejoin="round"/>
</g>
<defs>
<clipPath id="clip0_781_5678">
<rect width="24" height="24" fill="white" transform="translate(4 6)"/>
</clipPath>
</defs>
</svg>
