<svg width="25" height="25" viewBox="0 0 25 25" fill="none" xmlns="http://www.w3.org/2000/svg">
<path fill-rule="evenodd" clip-rule="evenodd" d="M2.08594 6.2487C2.08594 5.6734 2.55231 5.20703 3.1276 5.20703H21.8776C22.4529 5.20703 22.9193 5.6734 22.9193 6.2487C22.9193 6.82399 22.4529 7.29036 21.8776 7.29036H3.1276C2.55231 7.29036 2.08594 6.82399 2.08594 6.2487Z" fill="#979797"/>
<path fill-rule="evenodd" clip-rule="evenodd" d="M10.4141 3.1263C10.1378 3.1263 9.87284 3.23605 9.67749 3.4314C9.48214 3.62675 9.3724 3.8917 9.3724 4.16797V5.20964H15.6224V4.16797C15.6224 3.8917 15.5126 3.62675 15.3173 3.4314C15.1219 3.23605 14.857 3.1263 14.5807 3.1263H10.4141ZM17.7057 5.20964V4.16797C17.7057 3.33917 17.3765 2.54431 16.7904 1.95826C16.2044 1.37221 15.4095 1.04297 14.5807 1.04297H10.4141C9.58526 1.04297 8.79041 1.37221 8.20435 1.95826C7.6183 2.54431 7.28906 3.33917 7.28906 4.16797V5.20964H5.20573C4.63043 5.20964 4.16406 5.67601 4.16406 6.2513V20.8346C4.16406 21.6634 4.4933 22.4583 5.07935 23.0443C5.6654 23.6304 6.46026 23.9596 7.28906 23.9596H17.7057C18.5345 23.9596 19.3294 23.6304 19.9154 23.0443C20.5015 22.4583 20.8307 21.6634 20.8307 20.8346V6.2513C20.8307 5.67601 20.3644 5.20964 19.7891 5.20964H17.7057ZM6.2474 7.29297V20.8346C6.2474 21.1109 6.35714 21.3759 6.55249 21.5712C6.74784 21.7666 7.0128 21.8763 7.28906 21.8763H17.7057C17.982 21.8763 18.2469 21.7666 18.4423 21.5712C18.6376 21.3759 18.7474 21.1109 18.7474 20.8346V7.29297H6.2474Z" fill="#979797"/>
<path fill-rule="evenodd" clip-rule="evenodd" d="M10.4167 10.418C10.992 10.418 11.4583 10.8843 11.4583 11.4596V17.7096C11.4583 18.2849 10.992 18.7513 10.4167 18.7513C9.84137 18.7513 9.375 18.2849 9.375 17.7096V11.4596C9.375 10.8843 9.84137 10.418 10.4167 10.418Z" fill="#979797"/>
<path fill-rule="evenodd" clip-rule="evenodd" d="M14.5807 10.418C15.156 10.418 15.6224 10.8843 15.6224 11.4596V17.7096C15.6224 18.2849 15.156 18.7513 14.5807 18.7513C14.0054 18.7513 13.5391 18.2849 13.5391 17.7096V11.4596C13.5391 10.8843 14.0054 10.418 14.5807 10.418Z" fill="#979797"/>
</svg>
